<svg width="12" height="14" viewBox="0 0 12 14" fill="none" xmlns="http://www.w3.org/2000/svg">
<g clip-path="url(#clip0)">
<path d="M0.5 12.686C0.5 13.3589 1.04706 13.9048 1.72135 13.9048H10.6779C11.3522 13.9048 11.8993 13.3589 11.8993 12.686V5.77979H0.5V12.686ZM8.64232 7.70947C8.64232 7.54189 8.77973 7.40479 8.94766 7.40479H9.96545C10.1334 7.40479 10.2708 7.54189 10.2708 7.70947V8.7251C10.2708 8.89268 10.1334 9.02979 9.96545 9.02979H8.94766C8.77973 9.02979 8.64232 8.89268 8.64232 8.7251V7.70947ZM8.64232 10.9595C8.64232 10.7919 8.77973 10.6548 8.94766 10.6548H9.96545C10.1334 10.6548 10.2708 10.7919 10.2708 10.9595V11.9751C10.2708 12.1427 10.1334 12.2798 9.96545 12.2798H8.94766C8.77973 12.2798 8.64232 12.1427 8.64232 11.9751V10.9595ZM5.38539 7.70947C5.38539 7.54189 5.5228 7.40479 5.69073 7.40479H6.70852C6.87646 7.40479 7.01386 7.54189 7.01386 7.70947V8.7251C7.01386 8.89268 6.87646 9.02979 6.70852 9.02979H5.69073C5.5228 9.02979 5.38539 8.89268 5.38539 8.7251V7.70947ZM5.38539 10.9595C5.38539 10.7919 5.5228 10.6548 5.69073 10.6548H6.70852C6.87646 10.6548 7.01386 10.7919 7.01386 10.9595V11.9751C7.01386 12.1427 6.87646 12.2798 6.70852 12.2798H5.69073C5.5228 12.2798 5.38539 12.1427 5.38539 11.9751V10.9595ZM2.12846 7.70947C2.12846 7.54189 2.26587 7.40479 2.4338 7.40479H3.45159C3.61953 7.40479 3.75693 7.54189 3.75693 7.70947V8.7251C3.75693 8.89268 3.61953 9.02979 3.45159 9.02979H2.4338C2.26587 9.02979 2.12846 8.89268 2.12846 8.7251V7.70947ZM2.12846 10.9595C2.12846 10.7919 2.26587 10.6548 2.4338 10.6548H3.45159C3.61953 10.6548 3.75693 10.7919 3.75693 10.9595V11.9751C3.75693 12.1427 3.61953 12.2798 3.45159 12.2798H2.4338C2.26587 12.2798 2.12846 12.1427 2.12846 11.9751V10.9595ZM10.6779 2.52979H9.45656V1.31104C9.45656 1.0876 9.27335 0.904785 9.04944 0.904785H8.23521C8.01129 0.904785 7.82809 1.0876 7.82809 1.31104V2.52979H4.57116V1.31104C4.57116 1.0876 4.38796 0.904785 4.16405 0.904785H3.34981C3.1259 0.904785 2.9427 1.0876 2.9427 1.31104V2.52979H1.72135C1.04706 2.52979 0.5 3.07568 0.5 3.74854V4.96729H11.8993V3.74854C11.8993 3.07568 11.3522 2.52979 10.6779 2.52979Z" fill="#AFAFAF"/>
</g>
<defs>
<clipPath id="clip0">
<rect x="0.5" y="0.904785" width="11.3993" height="13" fill="white"/>
</clipPath>
</defs>
</svg>
