<svg width="160" height="42" viewBox="0 0 160 42" fill="none" xmlns="http://www.w3.org/2000/svg">
<g clip-path="url(#clip0)">
<path d="M159.281 23.7272C159.388 23.8475 159.446 24.0032 159.446 24.1644C159.446 24.5271 159.156 24.8212 158.797 24.8212H153.556C153.371 24.8212 153.195 24.7413 153.072 24.6016L145.983 16.5626H139.703L139.703 24.1644C139.703 24.5271 139.412 24.8211 139.054 24.8211L134.994 24.8211C134.636 24.8211 134.345 24.5271 134.345 24.1644L134.345 0.667705C134.345 0.667701 134.345 0.667696 134.345 0.667691C134.345 0.304984 134.636 0.0109525 134.994 0.0109547L147.708 0.011045C154.246 0.011045 158.469 3.28642 158.469 8.35514C158.469 9.91726 157.958 14.3455 152.435 15.962L159.281 23.7272ZM123.904 14.2467V0.674035C123.904 0.311327 124.195 0.0172942 124.553 0.0172942H128.663C129.022 0.0172942 129.312 0.311327 129.312 0.674035V14.2467C129.312 21.1176 124.346 25.5572 116.497 25.5572C108.676 25.5572 103.712 21.2231 103.712 14.2467V0.674035C103.712 0.311327 104.003 0.0172942 104.361 0.0172942H108.472C108.83 0.0172942 109.121 0.311327 109.121 0.674035V14.2467C109.121 18.1751 111.605 20.0844 116.497 20.0844C121.271 20.0844 123.904 17.9565 123.904 14.2467ZM93.571 0.221621C93.6942 0.0806947 93.8712 0 94.0572 0L99.5447 0C99.7031 0 99.8561 0.0586378 99.9747 0.164862C100.243 0.405194 100.268 0.820243 100.031 1.0919L89.9922 12.574L99.9347 23.8923C100.04 24.0125 100.099 24.1677 100.099 24.3286C100.099 24.6913 99.8081 24.9853 99.4496 24.9853H93.9498C93.7645 24.9853 93.5879 24.9051 93.4648 24.7649L86.3754 16.6951L79.2911 24.7648C79.1679 24.9051 78.9913 24.9853 78.8058 24.9853H73.3074C73.1485 24.9853 72.9952 24.9263 72.8764 24.8196C72.6084 24.5787 72.5842 24.1636 72.8222 23.8924L82.7589 12.5744L72.6887 1.09268C72.5833 0.972507 72.5251 0.817411 72.5251 0.65674C72.5251 0.294033 72.8157 0 73.1741 0L78.6701 0C78.8556 0 79.0323 0.080378 79.1555 0.220825L86.3754 8.45335L93.571 0.221621ZM51.2476 0.345656C51.3607 0.132859 51.5802 0.000145942 51.8191 0.000145942H56.6513C56.8902 0.000145942 57.1097 0.132928 57.2229 0.345813L69.8043 24.0177C69.8551 24.1133 69.8817 24.2202 69.8817 24.3287C69.8817 24.6914 69.5912 24.9855 69.2327 24.9855H64.5655C64.3266 24.9855 64.107 24.8527 63.9939 24.6398L61.1204 19.2332L47.345 19.2328L44.4691 24.64C44.3559 24.8528 44.1364 24.9855 43.8976 24.9855H39.2294C39.1221 24.9855 39.0164 24.9585 38.9219 24.907C38.6062 24.7352 38.488 24.3369 38.6579 24.0175L51.2476 0.345656ZM49.8683 14.4897L58.5989 14.49L54.2354 6.28004L49.8683 14.4897ZM139.718 4.73753L139.703 11.8374H147.507C150.016 11.8374 151.349 11.235 152.024 10.7294C152.774 10.168 153.094 9.46031 153.094 8.36321C153.094 7.51285 152.691 4.73753 147.507 4.73753H139.718Z" fill="#222222"/>
<path d="M38.7537 0.287641L26.0297 24.1784C25.888 24.4445 25.9863 24.7764 26.2493 24.9198C26.3281 24.9628 26.4163 24.9853 26.5059 24.9853H31.4377C31.6366 24.9853 31.8194 24.8749 31.9138 24.6977L44.6381 0.806932C44.7798 0.540857 44.6815 0.208913 44.4186 0.0655136C44.3398 0.0225117 44.2516 0 44.162 0L39.2299 0C39.031 0 38.8481 0.110468 38.7537 0.287641Z" fill="#C92828"/>
<path d="M25.7735 0.287641L13.0495 24.1784C12.9078 24.4445 13.006 24.7764 13.269 24.9198C13.3478 24.9628 13.436 24.9853 13.5256 24.9853H18.4574C18.6563 24.9853 18.8391 24.8749 18.9335 24.6977L31.6578 0.806932C31.7995 0.540857 31.7013 0.208913 31.4383 0.0655136C31.3595 0.0225117 31.2713 0 31.1817 0L26.2496 0C26.0507 0 25.8678 0.110468 25.7735 0.287641Z" fill="#FF5824"/>
<path d="M12.7932 0.287641L0.0691909 24.1784C-0.0725186 24.4445 0.0257626 24.7764 0.288708 24.9198C0.367557 24.9628 0.455725 24.9853 0.545296 24.9853H5.47711C5.676 24.9853 5.85885 24.8749 5.95321 24.6977L18.6776 0.806932C18.8193 0.540857 18.721 0.208913 18.458 0.0655136C18.3792 0.0225117 18.291 0 18.2014 0L13.2693 0C13.0704 0 12.8875 0.110468 12.7932 0.287641Z" fill="#FA9043"/>
</g>
<path d="M136.434 36.2644V36.2364C136.434 35.583 136.27 35.0744 135.944 34.7104C135.617 34.337 135.169 34.043 134.6 33.8284C134.777 33.735 134.94 33.623 135.09 33.4924C135.248 33.3617 135.384 33.2124 135.496 33.0444C135.617 32.867 135.71 32.671 135.776 32.4564C135.85 32.2417 135.888 31.9944 135.888 31.7144V31.6864C135.888 30.9117 135.598 30.2957 135.02 29.8384C134.45 29.381 133.662 29.1524 132.654 29.1524H128.104V38.9524H132.766C133.316 38.9524 133.816 38.8964 134.264 38.7844C134.721 38.6724 135.108 38.5044 135.426 38.2804C135.752 38.0564 136 37.7764 136.168 37.4404C136.345 37.1044 136.434 36.7124 136.434 36.2644ZM133.746 32.0784C133.746 32.4424 133.606 32.7084 133.326 32.8764C133.046 33.035 132.668 33.1144 132.192 33.1144H130.204V31.0424H132.332C132.789 31.0424 133.139 31.131 133.382 31.3084C133.624 31.4764 133.746 31.7237 133.746 32.0504V32.0784ZM134.292 35.9984C134.292 36.3624 134.156 36.633 133.886 36.8104C133.615 36.9784 133.242 37.0624 132.766 37.0624H130.204V34.9064H132.696C133.256 34.9064 133.662 35.0044 133.914 35.2004C134.166 35.387 134.292 35.6437 134.292 35.9704V35.9984ZM140.209 38.9524V28.7324H138.081V38.9524H140.209ZM149.964 35.2144V35.1864C149.964 34.645 149.861 34.141 149.656 33.6744C149.451 33.1984 149.166 32.7877 148.802 32.4424C148.447 32.0877 148.023 31.8124 147.528 31.6164C147.033 31.411 146.497 31.3084 145.918 31.3084C145.33 31.3084 144.789 31.411 144.294 31.6164C143.799 31.8217 143.37 32.1017 143.006 32.4564C142.642 32.811 142.357 33.2264 142.152 33.7024C141.947 34.169 141.844 34.673 141.844 35.2144V35.2424C141.844 35.7837 141.947 36.2924 142.152 36.7684C142.357 37.235 142.637 37.6457 142.992 38.0004C143.356 38.3457 143.785 38.621 144.28 38.8264C144.775 39.0224 145.311 39.1204 145.89 39.1204C146.478 39.1204 147.019 39.0177 147.514 38.8124C148.009 38.607 148.438 38.327 148.802 37.9724C149.166 37.6177 149.451 37.207 149.656 36.7404C149.861 36.2644 149.964 35.7557 149.964 35.2144ZM147.864 35.2424C147.864 35.5224 147.817 35.7884 147.724 36.0404C147.64 36.283 147.514 36.4977 147.346 36.6844C147.178 36.871 146.973 37.0204 146.73 37.1324C146.497 37.235 146.226 37.2864 145.918 37.2864C145.619 37.2864 145.349 37.2304 145.106 37.1184C144.873 37.0064 144.667 36.857 144.49 36.6704C144.313 36.4744 144.177 36.255 144.084 36.0124C143.991 35.7604 143.944 35.4944 143.944 35.2144V35.1864C143.944 34.9064 143.986 34.645 144.07 34.4024C144.163 34.1504 144.294 33.931 144.462 33.7444C144.63 33.5577 144.831 33.413 145.064 33.3104C145.307 33.1984 145.582 33.1424 145.89 33.1424C146.179 33.1424 146.445 33.1984 146.688 33.3104C146.931 33.4224 147.141 33.5764 147.318 33.7724C147.495 33.959 147.631 34.1784 147.724 34.4304C147.817 34.673 147.864 34.9344 147.864 35.2144V35.2424ZM159.051 37.2584V31.4484H156.923V32.4284C156.633 32.111 156.302 31.845 155.929 31.6304C155.555 31.4157 155.079 31.3084 154.501 31.3084C154.071 31.3084 153.656 31.3877 153.255 31.5464C152.853 31.6957 152.499 31.9197 152.191 32.2184C151.883 32.517 151.635 32.8857 151.449 33.3244C151.262 33.7537 151.169 34.2484 151.169 34.8084V34.8364C151.169 35.3964 151.257 35.8957 151.435 36.3344C151.621 36.7637 151.869 37.1277 152.177 37.4264C152.485 37.725 152.839 37.9537 153.241 38.1124C153.642 38.2617 154.062 38.3364 154.501 38.3364C155.07 38.3364 155.541 38.229 155.915 38.0144C156.288 37.7997 156.633 37.501 156.951 37.1184V37.4824C156.951 38.1544 156.773 38.663 156.419 39.0084C156.073 39.3537 155.537 39.5264 154.809 39.5264C154.305 39.5264 153.852 39.4657 153.451 39.3444C153.059 39.223 152.667 39.055 152.275 38.8404L151.547 40.4364C152.023 40.6884 152.541 40.8797 153.101 41.0104C153.661 41.1504 154.249 41.2204 154.865 41.2204C155.565 41.2204 156.176 41.1457 156.699 40.9964C157.221 40.847 157.655 40.6137 158.001 40.2964C158.355 39.979 158.617 39.5684 158.785 39.0644C158.962 38.5697 159.051 37.9677 159.051 37.2584ZM156.951 34.8364C156.951 35.0884 156.904 35.3217 156.811 35.5364C156.717 35.751 156.587 35.9377 156.419 36.0964C156.26 36.2457 156.069 36.3624 155.845 36.4464C155.621 36.5304 155.378 36.5724 155.117 36.5724C154.594 36.5724 154.16 36.4137 153.815 36.0964C153.469 35.779 153.297 35.359 153.297 34.8364V34.8084C153.297 34.5564 153.343 34.323 153.437 34.1084C153.53 33.8937 153.656 33.7117 153.815 33.5624C153.983 33.4037 154.174 33.2824 154.389 33.1984C154.613 33.1144 154.855 33.0724 155.117 33.0724C155.378 33.0724 155.621 33.1144 155.845 33.1984C156.069 33.2824 156.26 33.4037 156.419 33.5624C156.587 33.7117 156.717 33.8937 156.811 34.1084C156.904 34.323 156.951 34.5564 156.951 34.8084V34.8364Z" fill="#707070"/>
<defs>
<clipPath id="clip0">
<rect width="160" height="25.9048" fill="white"/>
</clipPath>
</defs>
</svg>
