<svg width="12" height="14" viewBox="0 0 12 14" fill="none" xmlns="http://www.w3.org/2000/svg">
<g clip-path="url(#clip0)">
<path d="M6 7.40479C7.73594 7.40479 9.14286 5.9499 9.14286 4.15479C9.14286 2.35967 7.73594 0.904785 6 0.904785C4.26406 0.904785 2.85714 2.35967 2.85714 4.15479C2.85714 5.9499 4.26406 7.40479 6 7.40479ZM8.2 8.21729H7.78996C7.24487 8.47627 6.63839 8.62354 6 8.62354C5.36161 8.62354 4.75759 8.47627 4.21004 8.21729H3.8C1.97812 8.21729 0.5 9.7458 0.5 11.6298V12.686C0.5 13.3589 1.0279 13.9048 1.67857 13.9048H10.3214C10.9721 13.9048 11.5 13.3589 11.5 12.686V11.6298C11.5 9.7458 10.0219 8.21729 8.2 8.21729Z" fill="#AFAFAF"/>
</g>
<defs>
<clipPath id="clip0">
<rect x="0.5" y="0.904785" width="11" height="13" fill="white"/>
</clipPath>
</defs>
</svg>
